<svg xmlns="http://www.w3.org/2000/svg" xmlns:xlink="http://www.w3.org/1999/xlink" width="500" zoomAndPan="magnify" viewBox="0 0 375 374.999991" height="500" preserveAspectRatio="xMidYMid meet" version="1.2"><defs/><g id="c41b91f80d"><g style="fill:#e1b62f;fill-opacity:1;"><g transform="translate(61.227383, 222.00409)"><path style="stroke:none" d="M 3.53125 -2.9375 C 2.34375 -3.988281 1.582031 -5.269531 1.25 -6.78125 C 0.914062 -8.289062 0.789062 -9.859375 0.875 -11.484375 C 0.957031 -13.109375 1.003906 -14.625 1.015625 -16.03125 L 1 -32.8125 C 1 -34.644531 0.972656 -36.5 0.921875 -38.375 C 0.867188 -40.257812 0.921875 -42.078125 1.078125 -43.828125 C 1.242188 -45.585938 1.644531 -47.15625 2.28125 -48.53125 C 2.925781 -49.914062 3.941406 -50.992188 5.328125 -51.765625 C 6.722656 -52.535156 8.625 -52.898438 11.03125 -52.859375 C 12.28125 -52.847656 13.800781 -52.851562 15.59375 -52.875 C 17.394531 -52.90625 19.28125 -52.882812 21.25 -52.8125 C 23.21875 -52.738281 25.117188 -52.519531 26.953125 -52.15625 C 28.796875 -51.789062 30.410156 -51.164062 31.796875 -50.28125 C 33.179688 -49.40625 34.160156 -48.195312 34.734375 -46.65625 C 35.515625 -44.582031 35.519531 -42.941406 34.75 -41.734375 C 33.976562 -40.535156 32.816406 -39.664062 31.265625 -39.125 C 29.710938 -38.59375 28.054688 -38.257812 26.296875 -38.125 C 24.546875 -38 23.046875 -37.96875 21.796875 -38.03125 C 20.960938 -38.0625 19.992188 -38.113281 18.890625 -38.1875 C 17.785156 -38.257812 16.765625 -38.203125 15.828125 -38.015625 C 14.898438 -37.835938 14.210938 -37.398438 13.765625 -36.703125 C 13.066406 -35.640625 12.832031 -34.769531 13.0625 -34.09375 C 13.289062 -33.425781 13.800781 -32.921875 14.59375 -32.578125 C 15.394531 -32.234375 16.238281 -32.046875 17.125 -32.015625 C 19 -31.921875 20.671875 -31.695312 22.140625 -31.34375 C 23.609375 -31 24.710938 -30.285156 25.453125 -29.203125 C 26.191406 -28.128906 26.414062 -26.460938 26.125 -24.203125 C 25.6875 -20.992188 24.476562 -18.707031 22.5 -17.34375 C 20.53125 -15.988281 17.96875 -15.765625 14.8125 -16.671875 C 14.84375 -15.515625 14.804688 -14.019531 14.703125 -12.1875 C 14.597656 -10.351562 14.335938 -8.515625 13.921875 -6.671875 C 13.503906 -4.835938 12.867188 -3.304688 12.015625 -2.078125 C 11.160156 -0.847656 10.039062 -0.222656 8.65625 -0.203125 C 7.269531 -0.191406 5.5625 -1.101562 3.53125 -2.9375 Z M 3.53125 -2.9375 "/></g></g><g style="fill:#e1b62f;fill-opacity:1;"><g transform="translate(97.744362, 220.947998)"><path style="stroke:none" d="M 4.3125 -2.875 C 3.050781 -4.925781 2.132812 -7.238281 1.5625 -9.8125 C 0.988281 -12.382812 0.6875 -15.050781 0.65625 -17.8125 C 0.625 -20.582031 0.738281 -23.300781 1 -25.96875 C 1.269531 -28.644531 1.609375 -31.144531 2.015625 -33.46875 C 2.148438 -34.3125 2.34375 -35.296875 2.59375 -36.421875 C 2.851562 -37.554688 3.226562 -38.625 3.71875 -39.625 C 4.207031 -40.632812 4.894531 -41.335938 5.78125 -41.734375 C 6.863281 -42.234375 7.828125 -42.257812 8.671875 -41.8125 C 9.515625 -41.375 10.238281 -40.664062 10.84375 -39.6875 C 11.457031 -38.707031 11.945312 -37.6875 12.3125 -36.625 C 12.6875 -35.570312 12.960938 -34.648438 13.140625 -33.859375 C 13.929688 -35.296875 14.878906 -36.644531 15.984375 -37.90625 C 17.097656 -39.175781 18.390625 -40.144531 19.859375 -40.8125 C 21.335938 -41.476562 22.945312 -41.628906 24.6875 -41.265625 C 26.207031 -40.941406 27.609375 -40.222656 28.890625 -39.109375 C 30.179688 -37.992188 31.265625 -36.703125 32.140625 -35.234375 C 33.023438 -33.773438 33.570312 -32.285156 33.78125 -30.765625 C 33.914062 -29.566406 33.722656 -28.460938 33.203125 -27.453125 C 32.679688 -26.441406 31.769531 -25.867188 30.46875 -25.734375 C 29.257812 -25.640625 28.304688 -25.960938 27.609375 -26.703125 C 26.910156 -27.453125 26.109375 -28.125 25.203125 -28.71875 C 23.804688 -29.71875 22.535156 -30.070312 21.390625 -29.78125 C 20.253906 -29.488281 19.242188 -28.847656 18.359375 -27.859375 C 17.484375 -26.867188 16.703125 -25.734375 16.015625 -24.453125 C 15.253906 -23.128906 14.59375 -21.753906 14.03125 -20.328125 C 13.476562 -18.898438 13.09375 -17.425781 12.875 -15.90625 C 12.613281 -14.226562 12.453125 -12.535156 12.390625 -10.828125 C 12.335938 -9.128906 12.207031 -7.4375 12 -5.75 C 11.78125 -4.1875 11.265625 -2.851562 10.453125 -1.75 C 9.648438 -0.65625 8.695312 -0.128906 7.59375 -0.171875 C 6.5 -0.222656 5.40625 -1.125 4.3125 -2.875 Z M 4.3125 -2.875 "/></g></g><g style="fill:#e1b62f;fill-opacity:1;"><g transform="translate(133.164279, 219.923633)"><path style="stroke:none" d="M 24.984375 -0.796875 C 24.085938 -0.984375 23.394531 -1.472656 22.90625 -2.265625 C 22.414062 -3.066406 22.0625 -4 21.84375 -5.0625 C 21.632812 -6.125 21.488281 -7.164062 21.40625 -8.1875 C 21.320312 -9.207031 21.269531 -10.03125 21.25 -10.65625 C 20.195312 -9.113281 18.835938 -7.78125 17.171875 -6.65625 C 15.515625 -5.53125 13.757812 -4.796875 11.90625 -4.453125 C 10.0625 -4.117188 8.316406 -4.289062 6.671875 -4.96875 C 5.035156 -5.65625 3.664062 -7.003906 2.5625 -9.015625 C 1.507812 -11.078125 0.90625 -13.304688 0.75 -15.703125 C 0.601562 -18.097656 0.835938 -20.492188 1.453125 -22.890625 C 2.066406 -25.296875 2.921875 -27.425781 4.015625 -29.28125 C 5.054688 -30.988281 6.34375 -32.519531 7.875 -33.875 C 9.40625 -35.226562 11.078125 -36.203125 12.890625 -36.796875 C 14.710938 -37.398438 16.488281 -37.453125 18.21875 -36.953125 C 19.957031 -36.453125 21.5625 -35.226562 23.03125 -33.28125 C 23.894531 -32.164062 24.613281 -31.171875 25.1875 -30.296875 C 25.769531 -29.421875 26.21875 -28.488281 26.53125 -27.5 C 26.84375 -26.507812 27.050781 -25.257812 27.15625 -23.75 L 28.046875 -9.046875 C 28.054688 -8.472656 28.101562 -7.691406 28.1875 -6.703125 C 28.269531 -5.710938 28.257812 -4.726562 28.15625 -3.75 C 28.050781 -2.78125 27.757812 -2 27.28125 -1.40625 C 26.800781 -0.820312 26.035156 -0.617188 24.984375 -0.796875 Z M 14.53125 -18.234375 C 15.15625 -18.253906 15.796875 -18.617188 16.453125 -19.328125 C 17.117188 -20.046875 17.707031 -20.84375 18.21875 -21.71875 C 18.738281 -22.601562 19.070312 -23.285156 19.21875 -23.765625 C 19.707031 -24.921875 19.742188 -25.9375 19.328125 -26.8125 C 18.910156 -27.695312 18.085938 -27.863281 16.859375 -27.3125 C 16.035156 -26.96875 15.25 -26.207031 14.5 -25.03125 C 13.75 -23.863281 13.226562 -22.859375 12.9375 -22.015625 C 12.695312 -21.160156 12.613281 -20.320312 12.6875 -19.5 C 12.769531 -18.675781 13.382812 -18.253906 14.53125 -18.234375 Z M 14.53125 -18.234375 "/></g></g><g style="fill:#e1b62f;fill-opacity:1;"><g transform="translate(162.785363, 219.066974)"><path style="stroke:none" d="M 30.5625 4.53125 C 29.363281 3.207031 28.4375 1.585938 27.78125 -0.328125 C 27.125 -2.253906 26.609375 -4.21875 26.234375 -6.21875 C 25.867188 -8.21875 25.507812 -10.046875 25.15625 -11.703125 C 24.90625 -12.804688 24.601562 -13.925781 24.25 -15.0625 C 23.90625 -16.195312 23.367188 -17.117188 22.640625 -17.828125 C 21.921875 -18.546875 20.832031 -18.804688 19.375 -18.609375 C 18.1875 -18.460938 17.101562 -18.007812 16.125 -17.25 C 15.15625 -16.488281 14.265625 -15.679688 13.453125 -14.828125 C 12.335938 -13.742188 11.75 -12.820312 11.6875 -12.0625 C 11.632812 -11.300781 11.628906 -10.191406 11.671875 -8.734375 C 11.648438 -7.679688 11.5 -6.507812 11.21875 -5.21875 C 10.9375 -3.9375 10.5 -2.828125 9.90625 -1.890625 C 9.3125 -0.960938 8.539062 -0.429688 7.59375 -0.296875 C 6.65625 -0.160156 5.546875 -0.726562 4.265625 -2 C 3.023438 -3.226562 2.148438 -4.785156 1.640625 -6.671875 C 1.140625 -8.566406 0.875 -10.53125 0.84375 -12.5625 C 0.8125 -14.601562 0.828125 -16.414062 0.890625 -18 C 0.941406 -19.707031 1.082031 -21.535156 1.3125 -23.484375 C 1.550781 -25.429688 1.96875 -27.328125 2.5625 -29.171875 C 3.164062 -31.015625 4.050781 -32.601562 5.21875 -33.9375 C 6.28125 -35.1875 7.1875 -35.804688 7.9375 -35.796875 C 8.695312 -35.796875 9.351562 -35.410156 9.90625 -34.640625 C 10.457031 -33.867188 10.890625 -32.910156 11.203125 -31.765625 C 11.523438 -30.617188 11.769531 -29.460938 11.9375 -28.296875 C 12.101562 -27.128906 12.195312 -26.175781 12.21875 -25.4375 C 13.726562 -27 15.382812 -28.265625 17.1875 -29.234375 C 18.988281 -30.203125 20.800781 -30.765625 22.625 -30.921875 C 24.457031 -31.085938 26.179688 -30.707031 27.796875 -29.78125 C 29.421875 -28.851562 30.785156 -27.28125 31.890625 -25.0625 C 33.109375 -22.632812 34.046875 -19.984375 34.703125 -17.109375 C 35.367188 -14.242188 35.847656 -11.347656 36.140625 -8.421875 C 36.429688 -5.503906 36.617188 -2.710938 36.703125 -0.046875 C 36.734375 0.953125 36.617188 1.960938 36.359375 2.984375 C 36.097656 4.015625 35.710938 4.851562 35.203125 5.5 C 34.703125 6.144531 34.054688 6.4375 33.265625 6.375 C 32.484375 6.320312 31.582031 5.707031 30.5625 4.53125 Z M 30.5625 4.53125 "/></g></g><g style="fill:#e1b62f;fill-opacity:1;"><g transform="translate(200.634519, 217.972355)"><path style="stroke:none" d="M 9.328125 -0.5 C 7.472656 -0.914062 5.953125 -1.800781 4.765625 -3.15625 C 3.585938 -4.507812 2.664062 -6.15625 2 -8.09375 C 1.34375 -10.03125 0.929688 -12.070312 0.765625 -14.21875 C 0.597656 -16.363281 0.640625 -18.414062 0.890625 -20.375 C 1.148438 -22.34375 1.578125 -24.007812 2.171875 -25.375 C 3.242188 -27.875 4.679688 -29.957031 6.484375 -31.625 C 8.296875 -33.300781 10.53125 -34.441406 13.1875 -35.046875 C 14.800781 -35.410156 16.472656 -35.441406 18.203125 -35.140625 C 19.929688 -34.847656 21.4375 -34.195312 22.71875 -33.1875 C 24.007812 -32.1875 24.757812 -30.722656 24.96875 -28.796875 C 25.582031 -27.398438 25.640625 -26.234375 25.140625 -25.296875 C 24.640625 -24.367188 23.898438 -23.757812 22.921875 -23.46875 C 21.941406 -23.1875 20.957031 -23.304688 19.96875 -23.828125 C 18.976562 -24.347656 18.28125 -25.335938 17.875 -26.796875 C 16.957031 -26.453125 15.925781 -25.660156 14.78125 -24.421875 C 13.644531 -23.179688 12.5625 -21.738281 11.53125 -20.09375 C 10.507812 -18.445312 9.757812 -16.820312 9.28125 -15.21875 C 8.8125 -13.613281 8.800781 -12.210938 9.25 -11.015625 C 9.757812 -9.722656 10.34375 -9.085938 11 -9.109375 C 11.65625 -9.128906 12.335938 -9.5 13.046875 -10.21875 C 13.753906 -10.945312 14.421875 -11.710938 15.046875 -12.515625 C 15.679688 -13.316406 16.207031 -13.851562 16.625 -14.125 C 17.613281 -15.613281 18.472656 -16.4375 19.203125 -16.59375 C 19.929688 -16.75 20.515625 -16.46875 20.953125 -15.75 C 21.390625 -15.03125 21.675781 -14.109375 21.8125 -12.984375 C 21.945312 -11.859375 21.953125 -10.71875 21.828125 -9.5625 C 21.710938 -8.414062 21.457031 -7.492188 21.0625 -6.796875 C 20.40625 -5.523438 19.429688 -4.347656 18.140625 -3.265625 C 16.847656 -2.179688 15.421875 -1.367188 13.859375 -0.828125 C 12.304688 -0.285156 10.796875 -0.175781 9.328125 -0.5 Z M 9.328125 -0.5 "/></g></g><g style="fill:#e1b62f;fill-opacity:1;"><g transform="translate(227.983071, 217.181419)"><path style="stroke:none" d="M 0.875 -37.28125 C 0.21875 -38.40625 -0.0078125 -39.519531 0.1875 -40.625 C 0.394531 -41.726562 0.851562 -42.628906 1.5625 -43.328125 C 2.28125 -44.035156 3.125 -44.351562 4.09375 -44.28125 C 5.0625 -44.207031 5.984375 -43.550781 6.859375 -42.3125 C 7.785156 -41.082031 8.144531 -39.890625 7.9375 -38.734375 C 7.738281 -37.578125 7.226562 -36.644531 6.40625 -35.9375 C 5.59375 -35.238281 4.660156 -34.953125 3.609375 -35.078125 C 2.566406 -35.210938 1.65625 -35.945312 0.875 -37.28125 Z M 7.65625 -1.078125 C 6.476562 -0.210938 5.492188 0.0703125 4.703125 -0.21875 C 3.910156 -0.507812 3.273438 -1.144531 2.796875 -2.125 C 2.316406 -3.101562 1.941406 -4.21875 1.671875 -5.46875 C 1.410156 -6.71875 1.234375 -7.898438 1.140625 -9.015625 C 1.054688 -10.128906 0.984375 -10.945312 0.921875 -11.46875 C 0.816406 -13.25 0.773438 -15.039062 0.796875 -16.84375 C 0.828125 -18.644531 0.867188 -20.4375 0.921875 -22.21875 C 0.941406 -23.15625 0.9375 -24.210938 0.90625 -25.390625 C 0.875 -26.566406 0.960938 -27.691406 1.171875 -28.765625 C 1.378906 -29.847656 1.835938 -30.738281 2.546875 -31.4375 C 3.710938 -32.675781 4.710938 -33.238281 5.546875 -33.125 C 6.390625 -33.019531 7.085938 -32.503906 7.640625 -31.578125 C 8.191406 -30.648438 8.628906 -29.550781 8.953125 -28.28125 C 9.273438 -27.019531 9.519531 -25.773438 9.6875 -24.546875 C 9.851562 -23.328125 9.96875 -22.40625 10.03125 -21.78125 C 10.351562 -19.644531 10.46875 -17.519531 10.375 -15.40625 C 10.28125 -13.289062 10.109375 -11.15625 9.859375 -9 C 9.773438 -8.257812 9.695312 -7.363281 9.625 -6.3125 C 9.550781 -5.269531 9.382812 -4.269531 9.125 -3.3125 C 8.863281 -2.363281 8.375 -1.617188 7.65625 -1.078125 Z M 7.65625 -1.078125 "/></g></g><g style="fill:#e1b62f;fill-opacity:1;"><g transform="translate(240.050925, 216.83241)"><path style="stroke:none" d="M 11.546875 3.4375 C 10.097656 4 8.488281 4.367188 6.71875 4.546875 C 4.945312 4.734375 3.414062 4.269531 2.125 3.15625 C 0.84375 2.039062 0.144531 0.859375 0.03125 -0.390625 C -0.0820312 -1.640625 0.332031 -2.910156 1.28125 -4.203125 C 2.050781 -5.210938 3 -6.046875 4.125 -6.703125 C 5.25 -7.367188 6.390625 -8.019531 7.546875 -8.65625 C 8.710938 -9.289062 9.78125 -10 10.75 -10.78125 C 11.726562 -11.570312 12.429688 -12.601562 12.859375 -13.875 C 13.296875 -15.03125 13.332031 -15.992188 12.96875 -16.765625 C 12.613281 -17.546875 12.082031 -18.234375 11.375 -18.828125 C 10.675781 -19.429688 9.976562 -20.0625 9.28125 -20.71875 C 8.101562 -21.945312 7.238281 -23.335938 6.6875 -24.890625 C 6.144531 -26.441406 6.0625 -28.082031 6.4375 -29.8125 C 6.988281 -32.601562 8.3125 -34.785156 10.40625 -36.359375 C 12.5 -37.941406 14.785156 -39.164062 17.265625 -40.03125 C 18.140625 -40.320312 19.175781 -40.597656 20.375 -40.859375 C 21.570312 -41.128906 22.757812 -41.253906 23.9375 -41.234375 C 25.113281 -41.222656 26.191406 -40.976562 27.171875 -40.5 C 28.148438 -40.03125 28.867188 -39.203125 29.328125 -38.015625 C 29.953125 -36.472656 29.960938 -35.191406 29.359375 -34.171875 C 28.753906 -33.160156 27.8125 -32.296875 26.53125 -31.578125 C 25.25 -30.859375 23.894531 -30.164062 22.46875 -29.5 C 21.050781 -28.832031 19.832031 -28.078125 18.8125 -27.234375 C 17.800781 -26.398438 17.257812 -25.351562 17.1875 -24.09375 C 17.164062 -23.050781 17.503906 -22.132812 18.203125 -21.34375 C 18.898438 -20.550781 19.703125 -19.832031 20.609375 -19.1875 C 21.523438 -18.539062 22.226562 -17.832031 22.71875 -17.0625 C 23.476562 -15.820312 23.90625 -14.507812 24 -13.125 C 24.09375 -11.738281 23.953125 -10.363281 23.578125 -9 C 22.773438 -6.101562 21.253906 -3.585938 19.015625 -1.453125 C 16.773438 0.671875 14.285156 2.300781 11.546875 3.4375 Z M 11.546875 3.4375 "/></g></g><g style="fill:#e1b62f;fill-opacity:1;"><g transform="translate(272.022884, 215.907762)"><path style="stroke:none" d="M 9.328125 -0.5 C 7.472656 -0.914062 5.953125 -1.800781 4.765625 -3.15625 C 3.585938 -4.507812 2.664062 -6.15625 2 -8.09375 C 1.34375 -10.03125 0.929688 -12.070312 0.765625 -14.21875 C 0.597656 -16.363281 0.640625 -18.414062 0.890625 -20.375 C 1.148438 -22.34375 1.578125 -24.007812 2.171875 -25.375 C 3.242188 -27.875 4.679688 -29.957031 6.484375 -31.625 C 8.296875 -33.300781 10.53125 -34.441406 13.1875 -35.046875 C 14.800781 -35.410156 16.472656 -35.441406 18.203125 -35.140625 C 19.929688 -34.847656 21.4375 -34.195312 22.71875 -33.1875 C 24.007812 -32.1875 24.757812 -30.722656 24.96875 -28.796875 C 25.582031 -27.398438 25.640625 -26.234375 25.140625 -25.296875 C 24.640625 -24.367188 23.898438 -23.757812 22.921875 -23.46875 C 21.941406 -23.1875 20.957031 -23.304688 19.96875 -23.828125 C 18.976562 -24.347656 18.28125 -25.335938 17.875 -26.796875 C 16.957031 -26.453125 15.925781 -25.660156 14.78125 -24.421875 C 13.644531 -23.179688 12.5625 -21.738281 11.53125 -20.09375 C 10.507812 -18.445312 9.757812 -16.820312 9.28125 -15.21875 C 8.8125 -13.613281 8.800781 -12.210938 9.25 -11.015625 C 9.757812 -9.722656 10.34375 -9.085938 11 -9.109375 C 11.65625 -9.128906 12.335938 -9.5 13.046875 -10.21875 C 13.753906 -10.945312 14.421875 -11.710938 15.046875 -12.515625 C 15.679688 -13.316406 16.207031 -13.851562 16.625 -14.125 C 17.613281 -15.613281 18.472656 -16.4375 19.203125 -16.59375 C 19.929688 -16.75 20.515625 -16.46875 20.953125 -15.75 C 21.390625 -15.03125 21.675781 -14.109375 21.8125 -12.984375 C 21.945312 -11.859375 21.953125 -10.71875 21.828125 -9.5625 C 21.710938 -8.414062 21.457031 -7.492188 21.0625 -6.796875 C 20.40625 -5.523438 19.429688 -4.347656 18.140625 -3.265625 C 16.847656 -2.179688 15.421875 -1.367188 13.859375 -0.828125 C 12.304688 -0.285156 10.796875 -0.175781 9.328125 -0.5 Z M 9.328125 -0.5 "/></g></g><g style="fill:#e1b62f;fill-opacity:1;"><g transform="translate(299.371435, 215.116827)"><path style="stroke:none" d="M 22.015625 -3.46875 C 19.460938 -1.40625 16.828125 -0.382812 14.109375 -0.40625 C 11.390625 -0.4375 8.945312 -1.320312 6.78125 -3.0625 C 4.613281 -4.800781 3.015625 -7.117188 1.984375 -10.015625 C 1.117188 -12.710938 0.664062 -15.585938 0.625 -18.640625 C 0.59375 -21.691406 1.097656 -24.632812 2.140625 -27.46875 C 3.191406 -30.300781 4.8125 -32.6875 7 -34.625 C 8.476562 -35.925781 10.253906 -36.851562 12.328125 -37.40625 C 14.410156 -37.96875 16.472656 -38.109375 18.515625 -37.828125 C 20.554688 -37.546875 22.300781 -36.769531 23.75 -35.5 C 25.195312 -34.238281 26.007812 -32.378906 26.1875 -29.921875 C 27.082031 -27.859375 27.707031 -25.613281 28.0625 -23.1875 C 28.414062 -20.769531 28.457031 -18.34375 28.1875 -15.90625 C 27.925781 -13.46875 27.289062 -11.160156 26.28125 -8.984375 C 25.269531 -6.816406 23.847656 -4.976562 22.015625 -3.46875 Z M 18.71875 -13.953125 C 19.289062 -14.128906 19.707031 -14.65625 19.96875 -15.53125 C 20.238281 -16.40625 20.410156 -17.398438 20.484375 -18.515625 C 20.554688 -19.628906 20.5625 -20.679688 20.5 -21.671875 C 20.445312 -22.671875 20.390625 -23.328125 20.328125 -23.640625 C 19.859375 -23.265625 19.421875 -22.804688 19.015625 -22.265625 C 18.617188 -21.734375 18.300781 -21.203125 18.0625 -20.671875 C 17.132812 -18.617188 16.648438 -16.882812 16.609375 -15.46875 C 16.578125 -14.050781 17.28125 -13.546875 18.71875 -13.953125 Z M 18.71875 -13.953125 "/></g></g><g style="fill:#e1b62f;fill-opacity:1;"><g transform="translate(172.242119, 283.588777)"><path style="stroke:none" d="M 1.78125 -4.1875 L 1.78125 -3 L 4.078125 -3 L 4.078125 -2.09375 L 1.78125 -2.09375 L 1.78125 0 L 0.625 0 L 0.625 -5.078125 L 4.3125 -5.078125 L 4.3125 -4.1875 Z M 1.78125 -4.1875 "/></g></g><g style="fill:#e1b62f;fill-opacity:1;"><g transform="translate(176.676708, 283.588777)"><path style="stroke:none" d="M 1.78125 0 L 0.625 0 L 0.625 -5.078125 L 1.78125 -5.078125 Z M 1.78125 0 "/></g></g><g style="fill:#e1b62f;fill-opacity:1;"><g transform="translate(178.897677, 283.588777)"><path style="stroke:none" d="M 5.265625 0 L 3.71875 0 L 1.734375 -3.640625 C 1.753906 -3.367188 1.765625 -3.109375 1.765625 -2.859375 C 1.773438 -2.609375 1.78125 -2.390625 1.78125 -2.203125 L 1.78125 0 L 0.625 0 L 0.625 -5.078125 L 2.109375 -5.078125 L 4.15625 -1.34375 C 4.132812 -1.601562 4.117188 -1.863281 4.109375 -2.125 C 4.109375 -2.394531 4.109375 -2.625 4.109375 -2.8125 L 4.109375 -5.078125 L 5.265625 -5.078125 Z M 5.265625 0 "/></g></g><g style="fill:#e1b62f;fill-opacity:1;"><g transform="translate(184.597186, 283.588777)"><path style="stroke:none" d="M 4.390625 -0.90625 L 4.390625 0 L 0.625 0 L 0.625 -5.078125 L 4.3125 -5.078125 L 4.3125 -4.1875 L 1.78125 -4.1875 L 1.78125 -3 L 4.15625 -3 L 4.15625 -2.09375 L 1.78125 -2.09375 L 1.78125 -0.90625 Z M 4.390625 -0.90625 "/></g></g><g style="fill:#e1b62f;fill-opacity:1;"><g transform="translate(189.200921, 283.588777)"><path style="stroke:none" d=""/></g></g><g style="fill:#e1b62f;fill-opacity:1;"><g transform="translate(190.5688, 283.588777)"><path style="stroke:none" d="M 3.421875 -1.4375 L 1.78125 -1.4375 L 1.296875 0 L 0.078125 0 L 1.90625 -5.078125 L 3.328125 -5.078125 L 5.140625 0 L 3.890625 0 Z M 2.609375 -4.078125 L 2.0625 -2.34375 L 3.140625 -2.34375 Z M 2.609375 -4.078125 "/></g></g><g style="fill:#e1b62f;fill-opacity:1;"><g transform="translate(195.643203, 283.588777)"><path style="stroke:none" d="M 4.4375 -1.265625 C 4.46875 -0.960938 4.507812 -0.710938 4.5625 -0.515625 C 4.625 -0.316406 4.707031 -0.144531 4.8125 0 L 3.546875 0 C 3.484375 -0.175781 3.429688 -0.347656 3.390625 -0.515625 C 3.359375 -0.679688 3.328125 -0.867188 3.296875 -1.078125 C 3.265625 -1.359375 3.191406 -1.578125 3.078125 -1.734375 C 2.972656 -1.890625 2.828125 -1.972656 2.640625 -1.984375 C 2.566406 -1.992188 2.5 -2 2.4375 -2 C 2.375 -2 2.304688 -2 2.234375 -2 L 1.78125 -2 L 1.78125 0 L 0.625 0 L 0.625 -5.078125 L 2.546875 -5.078125 C 2.703125 -5.078125 2.835938 -5.070312 2.953125 -5.0625 C 3.066406 -5.0625 3.1875 -5.054688 3.3125 -5.046875 C 3.5625 -5.015625 3.785156 -4.945312 3.984375 -4.84375 C 4.191406 -4.75 4.359375 -4.609375 4.484375 -4.421875 C 4.609375 -4.234375 4.671875 -3.988281 4.671875 -3.6875 C 4.671875 -3.363281 4.582031 -3.097656 4.40625 -2.890625 C 4.226562 -2.679688 3.976562 -2.53125 3.65625 -2.4375 C 3.914062 -2.34375 4.101562 -2.195312 4.21875 -2 C 4.332031 -1.800781 4.40625 -1.554688 4.4375 -1.265625 Z M 1.78125 -2.84375 L 2.375 -2.84375 C 2.457031 -2.84375 2.53125 -2.84375 2.59375 -2.84375 C 2.65625 -2.84375 2.710938 -2.84375 2.765625 -2.84375 C 2.953125 -2.863281 3.113281 -2.921875 3.25 -3.015625 C 3.382812 -3.117188 3.453125 -3.285156 3.453125 -3.515625 C 3.453125 -3.742188 3.390625 -3.90625 3.265625 -4 C 3.148438 -4.09375 3 -4.148438 2.8125 -4.171875 C 2.757812 -4.171875 2.703125 -4.171875 2.640625 -4.171875 C 2.578125 -4.179688 2.503906 -4.1875 2.421875 -4.1875 L 1.78125 -4.1875 Z M 1.78125 -2.84375 "/></g></g><g style="fill:#e1b62f;fill-opacity:1;"><g transform="translate(200.541101, 283.588777)"><path style="stroke:none" d="M 4.671875 -4.1875 L 2.984375 -4.1875 L 2.984375 0 L 1.828125 0 L 1.828125 -4.1875 L 0.140625 -4.1875 L 0.140625 -5.078125 L 4.671875 -5.078125 Z M 4.671875 -4.1875 "/></g></g><g style="fill:#e1b62f;fill-opacity:1;"><g transform="translate(100.203878, 161.263528)"><path style="stroke:none" d="M 9.796875 -0.359375 C 7.816406 -0.046875 6.222656 -0.328125 5.015625 -1.203125 C 3.816406 -2.085938 2.90625 -3.289062 2.28125 -4.8125 C 1.664062 -6.34375 1.253906 -7.953125 1.046875 -9.640625 C 0.847656 -11.335938 0.753906 -12.863281 0.765625 -14.21875 C 0.890625 -18.976562 0.878906 -23.707031 0.734375 -28.40625 C 0.597656 -33.113281 0.566406 -37.816406 0.640625 -42.515625 C 0.691406 -44.359375 0.726562 -46.207031 0.75 -48.0625 C 0.78125 -49.914062 0.992188 -51.617188 1.390625 -53.171875 C 1.796875 -54.722656 2.5625 -56.007812 3.6875 -57.03125 C 4.8125 -58.0625 6.492188 -58.632812 8.734375 -58.75 C 11.242188 -58.925781 13.9375 -58.867188 16.8125 -58.578125 C 19.695312 -58.296875 22.445312 -57.6875 25.0625 -56.75 C 27.675781 -55.820312 29.910156 -54.414062 31.765625 -52.53125 C 33.628906 -50.65625 34.789062 -48.179688 35.25 -45.109375 C 35.570312 -42.910156 35.328125 -40.867188 34.515625 -38.984375 C 33.703125 -37.109375 32.546875 -35.429688 31.046875 -33.953125 C 29.546875 -32.472656 27.925781 -31.15625 26.1875 -30 C 24.945312 -29.1875 23.445312 -28.492188 21.6875 -27.921875 C 19.925781 -27.347656 18.519531 -26.570312 17.46875 -25.59375 C 16.5 -24.675781 15.847656 -23.503906 15.515625 -22.078125 C 15.191406 -20.660156 15.035156 -19.207031 15.046875 -17.71875 C 15.066406 -16.238281 15.09375 -14.898438 15.125 -13.703125 C 15.164062 -12.546875 15.191406 -11.25 15.203125 -9.8125 C 15.222656 -8.382812 15.09375 -7 14.8125 -5.65625 C 14.539062 -4.3125 14.015625 -3.15625 13.234375 -2.1875 C 12.453125 -1.21875 11.304688 -0.609375 9.796875 -0.359375 Z M 19.125 -35.125 C 21.820312 -36.050781 23.175781 -38.003906 23.1875 -40.984375 C 23.257812 -42.335938 22.921875 -43.707031 22.171875 -45.09375 C 21.429688 -46.488281 20.421875 -47.507812 19.140625 -48.15625 C 17.816406 -48.800781 16.878906 -48.878906 16.328125 -48.390625 C 15.773438 -47.898438 15.445312 -47.101562 15.34375 -46 C 15.25 -44.90625 15.257812 -43.742188 15.375 -42.515625 C 15.488281 -41.296875 15.554688 -40.238281 15.578125 -39.34375 C 15.554688 -38.25 15.546875 -37.296875 15.546875 -36.484375 C 15.546875 -35.679688 15.796875 -35.140625 16.296875 -34.859375 C 16.796875 -34.578125 17.738281 -34.664062 19.125 -35.125 Z M 19.125 -35.125 "/></g></g><g style="fill:#e1b62f;fill-opacity:1;"><g transform="translate(134.365656, 160.275549)"><path style="stroke:none" d="M 10.390625 -3.828125 C 7.921875 -4.179688 5.945312 -5.09375 4.46875 -6.5625 C 3 -8.039062 1.96875 -9.84375 1.375 -11.96875 C 0.789062 -14.09375 0.582031 -16.332031 0.75 -18.6875 C 0.914062 -21.039062 1.410156 -23.285156 2.234375 -25.421875 C 3.066406 -27.566406 4.140625 -29.394531 5.453125 -30.90625 C 7.128906 -32.78125 9.273438 -34.195312 11.890625 -35.15625 C 14.503906 -36.125 17.066406 -36.28125 19.578125 -35.625 C 20.898438 -35.289062 22.125 -34.65625 23.25 -33.71875 C 24.382812 -32.789062 25.28125 -31.707031 25.9375 -30.46875 C 26.601562 -29.226562 26.898438 -27.941406 26.828125 -26.609375 C 26.765625 -25.273438 26.226562 -23.992188 25.21875 -22.765625 C 24.25 -21.628906 23.039062 -20.78125 21.59375 -20.21875 C 20.144531 -19.65625 18.726562 -19.222656 17.34375 -18.921875 C 16.40625 -18.742188 15.441406 -18.613281 14.453125 -18.53125 C 13.460938 -18.457031 12.617188 -18.1875 11.921875 -17.71875 C 11.222656 -17.257812 10.84375 -16.347656 10.78125 -14.984375 C 10.71875 -13.566406 10.96875 -12.707031 11.53125 -12.40625 C 12.09375 -12.113281 12.796875 -12.175781 13.640625 -12.59375 C 14.484375 -13.007812 15.367188 -13.566406 16.296875 -14.265625 C 17.222656 -14.972656 18.0625 -15.65625 18.8125 -16.3125 C 19.570312 -16.96875 20.113281 -17.378906 20.4375 -17.546875 C 22.082031 -18.316406 23.28125 -18.398438 24.03125 -17.796875 C 24.78125 -17.191406 25.195312 -16.25 25.28125 -14.96875 C 25.375 -13.695312 25.210938 -12.398438 24.796875 -11.078125 C 24.390625 -9.753906 23.859375 -8.742188 23.203125 -8.046875 C 21.640625 -6.378906 19.675781 -5.1875 17.3125 -4.46875 C 14.957031 -3.75 12.648438 -3.535156 10.390625 -3.828125 Z M 15 -23.796875 C 15.53125 -23.648438 16.207031 -23.679688 17.03125 -23.890625 C 17.851562 -24.097656 18.546875 -24.429688 19.109375 -24.890625 C 19.671875 -25.347656 19.8125 -25.84375 19.53125 -26.375 C 18.539062 -26.5 17.632812 -26.335938 16.8125 -25.890625 C 16 -25.441406 15.394531 -24.742188 15 -23.796875 Z M 15 -23.796875 "/></g></g><g style="fill:#e1b62f;fill-opacity:1;"><g transform="translate(160.692045, 159.514175)"><path style="stroke:none" d="M 20.921875 4.96875 C 19.796875 5.945312 18.835938 6.25 18.046875 5.875 C 17.265625 5.5 16.609375 4.785156 16.078125 3.734375 C 15.546875 2.679688 15.128906 1.539062 14.828125 0.3125 C 14.535156 -0.90625 14.300781 -1.898438 14.125 -2.671875 C 13.382812 -6.429688 12.789062 -10.222656 12.34375 -14.046875 C 11.894531 -17.867188 11.535156 -21.679688 11.265625 -25.484375 C 11.117188 -27.210938 11.082031 -29.03125 11.15625 -30.9375 C 11.226562 -32.851562 11.203125 -34.550781 11.078125 -36.03125 C 10.960938 -37.519531 10.554688 -38.488281 9.859375 -38.9375 L 6.484375 -39.390625 C 5.679688 -39.484375 4.875 -39.59375 4.0625 -39.71875 C 3.25 -39.851562 2.472656 -40.066406 1.734375 -40.359375 C 0.410156 -40.953125 -0.515625 -41.828125 -1.046875 -42.984375 C -1.578125 -44.148438 -1.3125 -45.398438 -0.25 -46.734375 C 0.5625 -47.742188 1.664062 -48.414062 3.0625 -48.75 C 4.457031 -49.082031 5.757812 -49.320312 6.96875 -49.46875 L 11.390625 -51 C 11.742188 -51.582031 11.914062 -52.382812 11.90625 -53.40625 C 11.90625 -54.425781 11.945312 -55.269531 12.03125 -55.9375 C 12.25 -57.363281 12.566406 -58.894531 12.984375 -60.53125 C 13.410156 -62.164062 14.21875 -63.492188 15.40625 -64.515625 C 16.40625 -65.585938 17.289062 -65.960938 18.0625 -65.640625 C 18.832031 -65.328125 19.492188 -64.613281 20.046875 -63.5 C 20.597656 -62.394531 21.085938 -61.128906 21.515625 -59.703125 C 21.953125 -58.273438 22.332031 -56.929688 22.65625 -55.671875 C 22.976562 -54.410156 23.25 -53.488281 23.46875 -52.90625 C 23.757812 -52.289062 23.945312 -51.863281 24.03125 -51.625 C 24.113281 -51.394531 24.285156 -51.269531 24.546875 -51.25 C 24.816406 -51.238281 25.367188 -51.21875 26.203125 -51.1875 C 27.773438 -51.132812 28.953125 -51.078125 29.734375 -51.015625 C 30.515625 -50.960938 31.164062 -50.878906 31.6875 -50.765625 C 32.21875 -50.648438 32.910156 -50.445312 33.765625 -50.15625 C 34.816406 -49.820312 35.925781 -49.300781 37.09375 -48.59375 C 38.269531 -47.894531 39.03125 -46.953125 39.375 -45.765625 C 39.78125 -44.566406 39.585938 -43.566406 38.796875 -42.765625 C 38.003906 -41.960938 37.015625 -41.347656 35.828125 -40.921875 C 34.640625 -40.492188 33.601562 -40.160156 32.71875 -39.921875 L 26.3125 -38.953125 C 25.695312 -38.773438 25.320312 -38.707031 25.1875 -38.75 C 25.0625 -38.800781 25.007812 -38.800781 25.03125 -38.75 C 25.0625 -38.695312 24.953125 -38.410156 24.703125 -37.890625 L 24.78125 -35.140625 C 24.914062 -30.546875 24.957031 -25.910156 24.90625 -21.234375 C 24.851562 -16.554688 24.632812 -11.878906 24.25 -7.203125 C 24.125 -6.054688 23.992188 -4.679688 23.859375 -3.078125 C 23.722656 -1.484375 23.441406 0.0507812 23.015625 1.53125 C 22.585938 3.007812 21.890625 4.15625 20.921875 4.96875 Z M 20.921875 4.96875 "/></g></g><g style="fill:#e1b62f;fill-opacity:1;"><g transform="translate(199.084936, 158.40383)"><path style="stroke:none" d="M 10.390625 -3.828125 C 7.921875 -4.179688 5.945312 -5.09375 4.46875 -6.5625 C 3 -8.039062 1.96875 -9.84375 1.375 -11.96875 C 0.789062 -14.09375 0.582031 -16.332031 0.75 -18.6875 C 0.914062 -21.039062 1.410156 -23.285156 2.234375 -25.421875 C 3.066406 -27.566406 4.140625 -29.394531 5.453125 -30.90625 C 7.128906 -32.78125 9.273438 -34.195312 11.890625 -35.15625 C 14.503906 -36.125 17.066406 -36.28125 19.578125 -35.625 C 20.898438 -35.289062 22.125 -34.65625 23.25 -33.71875 C 24.382812 -32.789062 25.28125 -31.707031 25.9375 -30.46875 C 26.601562 -29.226562 26.898438 -27.941406 26.828125 -26.609375 C 26.765625 -25.273438 26.226562 -23.992188 25.21875 -22.765625 C 24.25 -21.628906 23.039062 -20.78125 21.59375 -20.21875 C 20.144531 -19.65625 18.726562 -19.222656 17.34375 -18.921875 C 16.40625 -18.742188 15.441406 -18.613281 14.453125 -18.53125 C 13.460938 -18.457031 12.617188 -18.1875 11.921875 -17.71875 C 11.222656 -17.257812 10.84375 -16.347656 10.78125 -14.984375 C 10.71875 -13.566406 10.96875 -12.707031 11.53125 -12.40625 C 12.09375 -12.113281 12.796875 -12.175781 13.640625 -12.59375 C 14.484375 -13.007812 15.367188 -13.566406 16.296875 -14.265625 C 17.222656 -14.972656 18.0625 -15.65625 18.8125 -16.3125 C 19.570312 -16.96875 20.113281 -17.378906 20.4375 -17.546875 C 22.082031 -18.316406 23.28125 -18.398438 24.03125 -17.796875 C 24.78125 -17.191406 25.195312 -16.25 25.28125 -14.96875 C 25.375 -13.695312 25.210938 -12.398438 24.796875 -11.078125 C 24.390625 -9.753906 23.859375 -8.742188 23.203125 -8.046875 C 21.640625 -6.378906 19.675781 -5.1875 17.3125 -4.46875 C 14.957031 -3.75 12.648438 -3.535156 10.390625 -3.828125 Z M 15 -23.796875 C 15.53125 -23.648438 16.207031 -23.679688 17.03125 -23.890625 C 17.851562 -24.097656 18.546875 -24.429688 19.109375 -24.890625 C 19.671875 -25.347656 19.8125 -25.84375 19.53125 -26.375 C 18.539062 -26.5 17.632812 -26.335938 16.8125 -25.890625 C 16 -25.441406 15.394531 -24.742188 15 -23.796875 Z M 15 -23.796875 "/></g></g><g style="fill:#e1b62f;fill-opacity:1;"><g transform="translate(225.411324, 157.642456)"><path style="stroke:none" d="M 4.3125 -2.875 C 3.050781 -4.925781 2.132812 -7.238281 1.5625 -9.8125 C 0.988281 -12.382812 0.6875 -15.050781 0.65625 -17.8125 C 0.625 -20.582031 0.738281 -23.300781 1 -25.96875 C 1.269531 -28.644531 1.609375 -31.144531 2.015625 -33.46875 C 2.148438 -34.3125 2.34375 -35.296875 2.59375 -36.421875 C 2.851562 -37.554688 3.226562 -38.625 3.71875 -39.625 C 4.207031 -40.632812 4.894531 -41.335938 5.78125 -41.734375 C 6.863281 -42.234375 7.828125 -42.257812 8.671875 -41.8125 C 9.515625 -41.375 10.238281 -40.664062 10.84375 -39.6875 C 11.457031 -38.707031 11.945312 -37.6875 12.3125 -36.625 C 12.6875 -35.570312 12.960938 -34.648438 13.140625 -33.859375 C 13.929688 -35.296875 14.878906 -36.644531 15.984375 -37.90625 C 17.097656 -39.175781 18.390625 -40.144531 19.859375 -40.8125 C 21.335938 -41.476562 22.945312 -41.628906 24.6875 -41.265625 C 26.207031 -40.941406 27.609375 -40.222656 28.890625 -39.109375 C 30.179688 -37.992188 31.265625 -36.703125 32.140625 -35.234375 C 33.023438 -33.773438 33.570312 -32.285156 33.78125 -30.765625 C 33.914062 -29.566406 33.722656 -28.460938 33.203125 -27.453125 C 32.679688 -26.441406 31.769531 -25.867188 30.46875 -25.734375 C 29.257812 -25.640625 28.304688 -25.960938 27.609375 -26.703125 C 26.910156 -27.453125 26.109375 -28.125 25.203125 -28.71875 C 23.804688 -29.71875 22.535156 -30.070312 21.390625 -29.78125 C 20.253906 -29.488281 19.242188 -28.847656 18.359375 -27.859375 C 17.484375 -26.867188 16.703125 -25.734375 16.015625 -24.453125 C 15.253906 -23.128906 14.59375 -21.753906 14.03125 -20.328125 C 13.476562 -18.898438 13.09375 -17.425781 12.875 -15.90625 C 12.613281 -14.226562 12.453125 -12.535156 12.390625 -10.828125 C 12.335938 -9.128906 12.207031 -7.4375 12 -5.75 C 11.78125 -4.1875 11.265625 -2.851562 10.453125 -1.75 C 9.648438 -0.65625 8.695312 -0.128906 7.59375 -0.171875 C 6.5 -0.222656 5.40625 -1.125 4.3125 -2.875 Z M 4.3125 -2.875 "/></g></g></g></svg>